<?xml version="1.0" encoding="UTF-8"?>
<svg width="1004px" height="11px" viewBox="0 0 1004 11" version="1.1" xmlns="http://www.w3.org/2000/svg" xmlns:xlink="http://www.w3.org/1999/xlink">
    <!-- Generator: Sketch 51.2 (57519) - http://www.bohemiancoding.com/sketch -->
    <title>Line 4</title>
    <desc>Created with Sketch.</desc>
    <defs></defs>
    <g id="Desktop" stroke="none" stroke-width="1" fill="none" fill-rule="evenodd">
        <g id="Portfolio-item2" transform="translate(-219.000000, -3500.000000)" fill="#3E3EC1" fill-rule="nonzero">
            <path id="Line-4" d="M228.745131,3509.31421 L220.745131,3504.81421 L220.745131,3505.68579 L228.745131,3501.18579 L229.180918,3500.94066 L228.690657,3500.06908 L228.254869,3500.31421 L220.254869,3504.81421 L219.480136,3505.25 L220.254869,3505.68579 L228.254869,3510.18579 L228.690657,3510.43092 L229.180918,3509.55934 L228.745131,3509.31421 Z M1213.25487,3501.18579 L1221.25487,3505.68579 L1221.25487,3504.81421 L1213.25487,3509.31421 L1212.81908,3509.55934 L1213.30934,3510.43092 L1213.74513,3510.18579 L1221.74513,3505.68579 L1222.51986,3505.25 L1221.74513,3504.81421 L1213.74513,3500.31421 L1213.30934,3500.06908 L1212.81908,3500.94066 L1213.25487,3501.18579 Z M221.5,3505.75 L228.5,3505.75 L1213.5,3505.75 L1220.5,3505.75 L1221,3505.75 L1221,3504.75 L1220.5,3504.75 L1213.5,3504.75 L228.5,3504.75 L221.5,3504.75 L221,3504.75 L221,3505.75 L221.5,3505.75 Z"></path>
        </g>
    </g>
</svg>